<svg xmlns="http://www.w3.org/2000/svg" xmlns:xlink="http://www.w3.org/1999/xlink" width="1000" zoomAndPan="magnify" viewBox="0 0 750 749.999995" height="1000" preserveAspectRatio="xMidYMid meet" version="1.2"><defs><clipPath id="87c6ac5826"><path d="M 212.597656 350 L 214 350 L 214 351 L 212.597656 351 Z M 212.597656 350 "/></clipPath><clipPath id="08a11d84bb"><path d="M 214 348.503906 L 215 348.503906 L 215 349 L 214 349 Z M 214 348.503906 "/></clipPath><clipPath id="54637c3dfb"><path d="M 213 353 L 221 353 L 221 358.253906 L 213 358.253906 Z M 213 353 "/></clipPath><clipPath id="5afbba05d1"><path d="M 217 349 L 222.347656 349 L 222.347656 357 L 217 357 Z M 217 349 "/></clipPath><clipPath id="bb5a7cc976"><path d="M 0 380 L 514 380 L 514 665.625 L 0 665.625 Z M 0 380 "/></clipPath></defs><g id="9bdf8176eb"><path style=" stroke:none;fill-rule:nonzero;fill:#000000;fill-opacity:1;" d="M 216.214844 353.378906 L 216.214844 355.265625 C 216.214844 355.613281 216.496094 355.894531 216.84375 355.894531 L 219.359375 355.894531 C 219.707031 355.894531 219.988281 355.613281 219.988281 355.265625 L 219.988281 353.378906 C 219.988281 353.03125 219.707031 352.75 219.359375 352.75 L 216.84375 352.75 C 216.496094 352.75 216.214844 353.03125 216.214844 353.378906 Z M 219.671875 353.378906 L 219.671875 355.265625 C 219.671875 355.441406 219.53125 355.582031 219.359375 355.582031 L 216.84375 355.582031 C 216.667969 355.582031 216.527344 355.441406 216.527344 355.265625 L 216.527344 353.378906 C 216.527344 353.207031 216.667969 353.066406 216.84375 353.066406 L 219.359375 353.066406 C 219.53125 353.066406 219.671875 353.207031 219.671875 353.378906 Z M 219.671875 353.378906 "/><path style=" stroke:none;fill-rule:nonzero;fill:#000000;fill-opacity:1;" d="M 219.25 354.71875 L 219.011719 354.71875 L 219.011719 353.929688 L 219.25 353.929688 L 219.25 353.617188 L 218.460938 353.617188 L 218.460938 353.929688 L 218.699219 353.929688 L 218.699219 354.71875 L 218.460938 354.71875 L 218.460938 355.03125 L 219.25 355.03125 Z M 219.25 354.71875 "/><path style=" stroke:none;fill-rule:nonzero;fill:#000000;fill-opacity:1;" d="M 217.34375 354.71875 L 217.757812 354.71875 L 217.824219 355.03125 L 218.148438 355.03125 L 217.859375 353.738281 C 217.84375 353.667969 217.78125 353.617188 217.707031 353.617188 L 217.390625 353.617188 C 217.316406 353.617188 217.253906 353.667969 217.238281 353.738281 L 216.949219 355.03125 L 217.273438 355.03125 L 217.339844 354.71875 Z M 217.519531 353.929688 L 217.582031 353.929688 L 217.6875 354.402344 L 217.414062 354.402344 Z M 217.519531 353.929688 "/><g clip-rule="nonzero" clip-path="url(#87c6ac5826)"><path style=" stroke:none;fill-rule:nonzero;fill:#000000;fill-opacity:1;" d="M 212.597656 350.472656 L 213.066406 350.472656 L 213.066406 350.785156 L 212.597656 350.785156 Z M 212.597656 350.472656 "/></g><path style=" stroke:none;fill-rule:nonzero;fill:#000000;fill-opacity:1;" d="M 216.371094 350.472656 L 216.84375 350.472656 L 216.84375 350.785156 L 216.371094 350.785156 Z M 216.371094 350.472656 "/><g clip-rule="nonzero" clip-path="url(#08a11d84bb)"><path style=" stroke:none;fill-rule:nonzero;fill:#000000;fill-opacity:1;" d="M 214.5625 348.503906 L 214.875 348.503906 L 214.875 348.976562 L 214.5625 348.976562 Z M 214.5625 348.503906 "/></g><path style=" stroke:none;fill-rule:nonzero;fill:#000000;fill-opacity:1;" d="M 213.105469 349.238281 L 213.328125 349.015625 L 213.664062 349.347656 L 213.441406 349.570312 Z M 213.105469 349.238281 "/><path style=" stroke:none;fill-rule:nonzero;fill:#000000;fill-opacity:1;" d="M 215.933594 351.90625 L 216.15625 351.683594 L 216.488281 352.019531 L 216.265625 352.242188 Z M 215.933594 351.90625 "/><path style=" stroke:none;fill-rule:nonzero;fill:#000000;fill-opacity:1;" d="M 215.777344 349.347656 L 216.109375 349.015625 L 216.332031 349.238281 L 216 349.570312 Z M 215.777344 349.347656 "/><path style=" stroke:none;fill-rule:nonzero;fill:#000000;fill-opacity:1;" d="M 213.105469 352.019531 L 213.441406 351.6875 L 213.664062 351.910156 L 213.328125 352.242188 Z M 213.105469 352.019531 "/><path style=" stroke:none;fill-rule:nonzero;fill:#000000;fill-opacity:1;" d="M 214.089844 351.808594 L 214.089844 352.359375 C 214.089844 352.707031 214.371094 352.988281 214.71875 352.988281 C 215.066406 352.988281 215.347656 352.707031 215.347656 352.359375 L 215.347656 351.808594 C 215.78125 351.578125 216.054688 351.125 216.054688 350.628906 C 216.054688 350.25 215.894531 349.886719 215.609375 349.632812 C 215.328125 349.378906 214.949219 349.257812 214.566406 349.300781 C 213.964844 349.367188 213.46875 349.855469 213.394531 350.457031 C 213.324219 351.019531 213.601562 351.546875 214.089844 351.808594 Z M 214.71875 352.671875 C 214.601562 352.671875 214.503906 352.609375 214.449219 352.515625 L 214.988281 352.515625 C 214.933594 352.609375 214.835938 352.671875 214.71875 352.671875 Z M 215.035156 352.199219 L 214.40625 352.199219 L 214.40625 352.042969 L 215.035156 352.042969 Z M 213.703125 350.496094 C 213.761719 350.035156 214.140625 349.664062 214.601562 349.613281 C 214.640625 349.609375 214.679688 349.605469 214.71875 349.605469 C 214.972656 349.605469 215.210938 349.699219 215.398438 349.867188 C 215.617188 350.0625 215.742188 350.339844 215.742188 350.628906 C 215.742188 351.035156 215.5 351.402344 215.128906 351.566406 C 215.070312 351.589844 215.035156 351.648438 215.035156 351.710938 L 215.035156 351.730469 L 214.40625 351.730469 L 214.40625 351.710938 C 214.40625 351.648438 214.367188 351.589844 214.308594 351.566406 C 213.890625 351.382812 213.648438 350.953125 213.703125 350.496094 Z M 213.703125 350.496094 "/><g clip-rule="nonzero" clip-path="url(#54637c3dfb)"><path style=" stroke:none;fill-rule:nonzero;fill:#000000;fill-opacity:1;" d="M 213.566406 353.363281 C 213.550781 353.523438 213.539062 353.6875 213.539062 353.851562 C 213.539062 356.28125 215.515625 358.253906 217.941406 358.253906 C 218.894531 358.253906 219.800781 357.957031 220.5625 357.390625 L 220.375 357.140625 C 219.667969 357.664062 218.828125 357.941406 217.945312 357.941406 C 215.691406 357.941406 213.855469 356.105469 213.855469 353.851562 C 213.855469 353.699219 213.863281 353.546875 213.882812 353.398438 Z M 213.566406 353.363281 "/></g><g clip-rule="nonzero" clip-path="url(#5afbba05d1)"><path style=" stroke:none;fill-rule:nonzero;fill:#000000;fill-opacity:1;" d="M 217.941406 349.449219 C 217.722656 349.449219 217.507812 349.464844 217.289062 349.496094 L 217.335938 349.808594 C 217.535156 349.777344 217.738281 349.761719 217.941406 349.761719 C 220.195312 349.761719 222.03125 351.597656 222.03125 353.851562 C 222.03125 354.734375 221.753906 355.578125 221.226562 356.28125 L 221.480469 356.46875 C 222.046875 355.710938 222.34375 354.804688 222.34375 353.851562 C 222.34375 351.421875 220.371094 349.449219 217.941406 349.449219 Z M 217.941406 349.449219 "/></g><path style=" stroke:none;fill-rule:nonzero;fill:#000000;fill-opacity:1;" d="M 220.726562 356.847656 L 220.9375 357.078125 C 221.015625 357.003906 221.09375 356.925781 221.167969 356.847656 L 220.9375 356.632812 C 220.871094 356.707031 220.800781 356.777344 220.726562 356.847656 Z M 220.726562 356.847656 "/><path style=" stroke:none;fill-rule:nonzero;fill:#000000;fill-opacity:1;" d="M 220.097656 351.335938 L 219.5625 351.335938 C 219.476562 351.335938 219.402344 351.40625 219.402344 351.492188 L 219.402344 351.605469 C 219.339844 351.628906 219.273438 351.652344 219.210938 351.683594 L 219.132812 351.605469 C 219.070312 351.542969 218.972656 351.542969 218.910156 351.605469 L 218.527344 351.988281 C 218.464844 352.046875 218.464844 352.148438 218.527344 352.207031 L 218.609375 352.289062 C 218.5625 352.375 218.53125 352.460938 218.507812 352.550781 L 218.8125 352.632812 C 218.832031 352.558594 218.859375 352.488281 218.894531 352.417969 C 218.949219 352.316406 218.933594 352.1875 218.863281 352.097656 L 219.023438 351.9375 C 219.113281 352.011719 219.242188 352.027344 219.34375 351.972656 C 219.414062 351.933594 219.488281 351.90625 219.574219 351.886719 C 219.660156 351.859375 219.722656 351.78125 219.722656 351.6875 L 219.722656 351.648438 L 219.945312 351.648438 L 219.945312 351.683594 C 219.945312 351.78125 220.015625 351.867188 220.101562 351.886719 C 220.179688 351.90625 220.253906 351.933594 220.324219 351.972656 C 220.425781 352.027344 220.554688 352.011719 220.644531 351.9375 L 220.804688 352.101562 C 220.730469 352.191406 220.714844 352.316406 220.769531 352.417969 C 220.800781 352.476562 220.824219 352.535156 220.84375 352.59375 C 220.878906 352.707031 220.976562 352.785156 221.09375 352.796875 L 221.09375 353.023438 C 220.976562 353.03125 220.878906 353.109375 220.839844 353.226562 C 220.824219 353.277344 220.804688 353.332031 220.769531 353.398438 C 220.714844 353.5 220.730469 353.628906 220.804688 353.71875 L 220.644531 353.878906 C 220.554688 353.804688 220.425781 353.789062 220.324219 353.84375 C 220.265625 353.875 220.207031 353.898438 220.148438 353.917969 L 220.242188 354.21875 C 220.3125 354.195312 220.378906 354.167969 220.453125 354.132812 L 220.53125 354.214844 C 220.5625 354.246094 220.601562 354.257812 220.644531 354.257812 C 220.683594 354.257812 220.722656 354.242188 220.753906 354.214844 L 221.136719 353.832031 C 221.199219 353.769531 221.199219 353.671875 221.136719 353.609375 L 221.058594 353.53125 C 221.09375 353.457031 221.117188 353.394531 221.136719 353.335938 L 221.25 353.335938 C 221.335938 353.335938 221.40625 353.265625 221.40625 353.179688 L 221.40625 352.644531 C 221.40625 352.554688 221.335938 352.484375 221.25 352.484375 L 221.136719 352.484375 C 221.117188 352.421875 221.089844 352.359375 221.058594 352.292969 L 221.136719 352.214844 C 221.199219 352.152344 221.199219 352.054688 221.136719 351.992188 L 220.757812 351.609375 C 220.695312 351.546875 220.597656 351.546875 220.535156 351.609375 L 220.453125 351.691406 C 220.394531 351.660156 220.332031 351.632812 220.261719 351.609375 L 220.261719 351.496094 C 220.261719 351.410156 220.191406 351.339844 220.105469 351.339844 Z M 220.097656 351.335938 "/><path style=" stroke:none;fill-rule:nonzero;fill:#000000;fill-opacity:1;" d="M 220.351562 353.5 C 220.519531 353.347656 220.617188 353.132812 220.617188 352.910156 C 220.617188 352.472656 220.265625 352.121094 219.832031 352.121094 C 219.605469 352.121094 219.390625 352.21875 219.242188 352.386719 L 219.476562 352.59375 C 219.566406 352.492188 219.695312 352.433594 219.832031 352.433594 C 220.089844 352.433594 220.300781 352.648438 220.300781 352.90625 C 220.300781 353.042969 220.242188 353.171875 220.140625 353.261719 L 220.347656 353.496094 Z M 220.351562 353.5 "/><path style=" stroke:none;fill-rule:nonzero;fill:#000000;fill-opacity:1;" d="M 215.269531 355.371094 C 215.183594 355.371094 215.113281 355.445312 215.113281 355.53125 L 215.113281 355.949219 C 215.113281 356.035156 215.183594 356.105469 215.269531 356.105469 L 215.332031 356.105469 C 215.34375 356.144531 215.359375 356.179688 215.375 356.214844 L 215.332031 356.257812 C 215.269531 356.320312 215.269531 356.417969 215.332031 356.480469 L 215.628906 356.777344 C 215.691406 356.835938 215.789062 356.835938 215.851562 356.777344 L 215.894531 356.730469 C 215.929688 356.75 215.964844 356.765625 216.003906 356.777344 L 216.003906 356.839844 C 216.003906 356.925781 216.074219 356.996094 216.160156 356.996094 L 216.578125 356.996094 C 216.664062 356.996094 216.734375 356.925781 216.734375 356.839844 L 216.734375 356.777344 C 216.773438 356.765625 216.808594 356.75 216.84375 356.734375 L 216.886719 356.777344 C 216.949219 356.839844 217.046875 356.839844 217.109375 356.777344 L 217.40625 356.480469 C 217.464844 356.421875 217.464844 356.320312 217.40625 356.257812 L 217.359375 356.214844 C 217.375 356.183594 217.386719 356.152344 217.398438 356.121094 L 217.101562 356.015625 C 217.089844 356.046875 217.078125 356.074219 217.0625 356.105469 C 217.019531 356.1875 217.027344 356.289062 217.074219 356.363281 L 216.992188 356.445312 C 216.917969 356.398438 216.8125 356.390625 216.730469 356.4375 C 216.691406 356.457031 216.648438 356.476562 216.601562 356.488281 C 216.511719 356.515625 216.445312 356.589844 216.425781 356.679688 L 216.3125 356.679688 C 216.292969 356.589844 216.226562 356.515625 216.132812 356.484375 C 216.089844 356.472656 216.046875 356.457031 216.003906 356.433594 C 215.921875 356.390625 215.820312 356.394531 215.742188 356.445312 L 215.660156 356.363281 C 215.710938 356.285156 215.714844 356.183594 215.671875 356.097656 C 215.652344 356.0625 215.632812 356.015625 215.621094 355.972656 C 215.59375 355.878906 215.515625 355.816406 215.425781 355.796875 L 215.425781 355.6875 C 215.511719 355.683594 215.585938 355.625 215.609375 355.539062 C 215.625 355.476562 215.648438 355.425781 215.675781 355.371094 C 215.71875 355.289062 215.710938 355.1875 215.664062 355.113281 L 215.746094 355.03125 C 215.820312 355.082031 215.921875 355.085938 216.003906 355.042969 C 216.046875 355.023438 216.078125 355.007812 216.105469 355 L 216.003906 354.699219 C 215.972656 354.710938 215.933594 354.726562 215.894531 354.746094 L 215.851562 354.699219 C 215.789062 354.636719 215.691406 354.636719 215.628906 354.699219 L 215.332031 354.996094 C 215.269531 355.058594 215.269531 355.15625 215.332031 355.21875 L 215.378906 355.261719 C 215.359375 355.296875 215.347656 355.332031 215.335938 355.371094 Z M 215.269531 355.371094 "/><path style=" stroke:none;fill-rule:nonzero;fill:#000000;fill-opacity:1;" d="M 215.929688 355.410156 C 215.859375 355.503906 215.820312 355.621094 215.820312 355.738281 C 215.820312 356.042969 216.066406 356.289062 216.371094 356.289062 C 216.488281 356.289062 216.605469 356.25 216.699219 356.179688 L 216.511719 355.929688 C 216.472656 355.960938 216.421875 355.976562 216.371094 355.976562 C 216.238281 355.976562 216.132812 355.871094 216.132812 355.738281 C 216.132812 355.6875 216.148438 355.636719 216.183594 355.597656 Z M 215.929688 355.410156 "/><path style=" stroke:none;fill-rule:nonzero;fill:#ffd56b;fill-opacity:1;" d="M 747.632812 372.769531 C 732.273438 364.347656 714.929688 354.929688 713.441406 354.4375 C 712.949219 354.4375 712.453125 353.941406 712.453125 353.941406 L 711.460938 353.445312 L 711.460938 352.453125 C 710.46875 346.011719 708.984375 339.570312 707.496094 333.128906 L 707.496094 332.136719 L 707.992188 331.640625 C 711.957031 326.191406 724.34375 308.847656 732.273438 298.441406 L 733.757812 296.460938 L 699.570312 249.878906 L 697.585938 250.375 C 697.585938 250.375 671.820312 257.808594 660.421875 261.277344 L 659.429688 261.277344 L 658.933594 260.78125 C 653.980469 256.816406 648.035156 253.347656 642.582031 249.878906 L 642.085938 249.382812 L 642.085938 248.394531 C 640.105469 236.996094 637.132812 220.644531 634.65625 211.726562 L 632.671875 204.292969 L 578.164062 196.363281 L 574.199219 203.796875 C 572.714844 206.273438 567.261719 216.679688 563.792969 222.625 C 563.300781 224.113281 562.308594 225.105469 562.308594 225.597656 L 561.8125 226.589844 C 560.324219 229.066406 559.335938 231.546875 557.847656 234.023438 L 557.351562 235.015625 L 556.363281 235.015625 C 549.917969 236.003906 543.476562 236.996094 537.035156 238.980469 L 536.046875 238.980469 L 535.550781 238.484375 C 526.628906 231.546875 513.746094 222.625 507.800781 217.671875 L 502.351562 213.707031 L 495.414062 216.679688 L 453.292969 245.914062 L 457.257812 259.789062 C 459.734375 268.214844 462.210938 276.636719 465.183594 285.558594 C 465.183594 285.558594 465.183594 286.054688 465.183594 286.550781 L 465.679688 287.539062 L 465.183594 288.035156 C 461.222656 293.484375 457.257812 299.433594 454.285156 304.882812 L 453.789062 305.875 L 451.3125 306.371094 C 442.390625 307.855469 423.066406 310.335938 417.121094 312.316406 L 408.695312 314.296875 L 400.273438 368.804688 L 407.210938 372.769531 C 410.183594 374.257812 421.578125 380.699219 425.046875 382.679688 L 426.535156 383.671875 C 430.003906 385.652344 433.472656 387.636719 436.941406 389.617188 L 437.929688 390.113281 L 437.929688 391.105469 C 438.425781 395.5625 439.417969 400.023438 440.410156 403.988281 C 453.292969 408.449219 464.691406 411.421875 471.628906 413.402344 C 466.671875 401.511719 463.699219 388.132812 463.699219 374.753906 C 462.210938 313.800781 510.773438 262.761719 571.722656 261.773438 C 632.671875 260.285156 683.710938 308.847656 684.703125 369.796875 C 686.1875 430.746094 637.628906 481.785156 576.679688 482.777344 C 561.316406 483.273438 546.453125 480.300781 532.578125 474.847656 L 541 541.25 L 571.226562 546.699219 L 579.652344 531.832031 C 583.617188 524.894531 587.578125 516.96875 592.039062 509.535156 L 592.535156 508.542969 L 593.527344 508.542969 C 599.472656 507.554688 605.417969 506.5625 610.871094 505.074219 L 611.859375 505.074219 L 612.355469 505.570312 C 619.292969 511.019531 636.140625 525.390625 642.085938 530.84375 L 643.574219 532.328125 L 653.980469 527.375 C 660.421875 523.90625 666.367188 520.4375 672.316406 516.472656 C 678.757812 512.011719 684.703125 507.554688 690.152344 502.597656 L 695.605469 497.640625 L 695.109375 495.660156 C 694.613281 494.667969 687.179688 466.917969 684.703125 460.972656 C 684.207031 459.980469 684.207031 458.992188 683.710938 458.496094 L 683.710938 457.503906 L 684.207031 457.007812 C 688.171875 451.558594 692.136719 446.109375 695.109375 440.160156 L 695.605469 439.664062 L 696.59375 439.664062 C 706.011719 437.683594 737.226562 431.738281 737.722656 431.738281 L 739.707031 431.242188 L 749.617188 376.734375 Z M 747.632812 372.769531 "/><path style=" stroke:none;fill-rule:nonzero;fill:#ffd56b;fill-opacity:1;" d="M 567.261719 346.011719 C 566.769531 340.5625 562.308594 336.597656 557.351562 336.101562 C 556.855469 336.101562 556.855469 336.101562 556.363281 336.101562 C 551.40625 336.101562 546.945312 339.570312 545.957031 344.523438 C 545.957031 345.019531 545.460938 346.011719 545.460938 346.507812 L 505.820312 375.246094 L 505.820312 390.609375 L 551.902344 356.914062 C 552.398438 356.914062 552.894531 357.410156 553.390625 357.410156 C 554.378906 357.90625 555.371094 357.90625 556.363281 357.90625 C 556.859375 357.90625 557.351562 357.90625 557.847656 357.90625 C 558.34375 357.90625 558.839844 357.90625 559.335938 357.410156 L 574.199219 371.777344 C 574.695312 376.238281 577.667969 380.203125 582.128906 381.195312 C 583.121094 381.195312 583.617188 381.691406 584.605469 381.691406 C 585.101562 381.691406 586.09375 381.691406 586.589844 381.691406 C 592.039062 380.699219 596.003906 376.238281 596.003906 370.789062 C 596.003906 370.292969 596.003906 369.796875 596.003906 369.796875 C 596.003906 369.300781 596.003906 368.804688 595.507812 367.816406 L 628.707031 326.6875 L 636.636719 333.128906 L 641.097656 299.929688 L 609.878906 312.8125 L 618.796875 319.75 L 586.09375 360.878906 C 586.09375 360.878906 586.09375 360.878906 585.597656 360.878906 C 585.101562 360.878906 585.101562 360.878906 584.605469 360.878906 C 583.121094 360.878906 581.632812 361.375 580.148438 361.867188 L 566.769531 348.984375 C 566.769531 348.488281 566.769531 348.488281 566.769531 347.992188 C 567.261719 347.003906 567.261719 346.507812 567.261719 346.011719 Z M 567.261719 346.011719 "/><path style=" stroke:none;fill-rule:nonzero;fill:#ffd56b;fill-opacity:1;" d="M 560.820312 427.277344 L 629.203125 427.277344 L 629.203125 341.550781 L 609.382812 366.824219 L 609.382812 410.925781 L 595.507812 410.925781 L 595.507812 389.617188 C 593.03125 391.105469 590.554688 392.09375 587.578125 392.589844 C 586.589844 392.589844 585.597656 392.589844 584.605469 392.589844 C 584.109375 392.589844 583.617188 392.589844 583.121094 392.589844 C 581.632812 392.589844 580.148438 392.09375 578.660156 391.601562 C 577.667969 391.105469 576.679688 391.105469 575.6875 390.609375 L 575.6875 410.925781 L 560.820312 410.925781 L 560.820312 374.257812 L 555.371094 369.300781 C 554.875 369.300781 554.378906 369.300781 553.882812 369.300781 L 540.503906 378.714844 L 540.503906 410.925781 L 525.640625 410.925781 L 525.640625 389.121094 L 505.816406 403.492188 L 505.816406 427.773438 L 560.820312 427.773438 Z M 560.820312 427.277344 "/><g clip-rule="nonzero" clip-path="url(#bb5a7cc976)"><path style=" stroke:none;fill-rule:nonzero;fill:#ffd56b;fill-opacity:1;" d="M 507.304688 552.148438 L 504.828125 531.339844 L 497.890625 476.335938 C 497.890625 476.335938 495.414062 454.53125 472.617188 449.578125 C 461.222656 447.097656 432.976562 439.664062 403.246094 426.78125 C 393.828125 422.816406 383.917969 418.359375 375 412.90625 C 372.027344 411.421875 369.054688 409.4375 366.082031 407.953125 C 366.082031 407.953125 365.585938 407.953125 365.585938 407.953125 C 362.613281 405.96875 360.132812 404.484375 357.160156 402.5 C 357.160156 402.5 356.664062 402.007812 356.664062 402.007812 C 354.1875 400.023438 351.214844 398.042969 348.738281 396.554688 C 348.738281 396.554688 348.242188 396.058594 348.242188 396.058594 C 345.765625 394.078125 343.285156 392.09375 341.304688 390.113281 C 341.304688 390.113281 340.808594 389.617188 340.808594 389.617188 C 338.332031 387.636719 336.347656 385.652344 334.367188 383.175781 C 334.367188 383.175781 333.871094 382.679688 333.871094 382.679688 C 332.878906 381.691406 331.394531 381.195312 330.402344 381.691406 C 327.925781 381.691406 325.941406 383.671875 325.449219 386.148438 C 325.449219 386.644531 325.449219 386.644531 325.449219 387.140625 C 325.449219 392.09375 324.953125 397.050781 324.457031 402.007812 C 319.5 472.867188 302.15625 555.125 289.273438 608.640625 L 275.894531 485.253906 L 272.921875 458.992188 L 275.398438 456.019531 L 287.292969 442.640625 L 263.507812 415.386719 L 258.550781 409.4375 L 253.597656 415.386719 L 229.8125 442.640625 L 241.703125 456.019531 L 244.183594 458.992188 L 241.207031 485.253906 L 226.34375 607.648438 C 213.460938 553.636719 196.117188 470.882812 190.664062 400.023438 C 190.167969 395.070312 190.167969 390.609375 189.675781 386.148438 C 189.675781 385.652344 189.675781 385.652344 189.675781 385.160156 C 189.179688 382.679688 187.195312 381.195312 184.71875 380.699219 C 183.230469 380.699219 182.242188 381.195312 181.25 381.691406 C 181.25 381.691406 180.753906 382.183594 180.753906 382.183594 C 178.773438 384.167969 176.789062 386.644531 174.3125 388.625 C 174.3125 388.625 173.816406 389.121094 173.816406 389.121094 C 171.339844 391.105469 169.359375 393.085938 166.878906 395.070312 C 166.878906 395.070312 166.382812 395.5625 166.382812 395.5625 C 163.90625 397.546875 161.429688 399.527344 158.457031 401.015625 C 158.457031 401.015625 157.960938 401.511719 157.960938 401.511719 C 155.484375 403.492188 152.507812 404.980469 149.535156 406.960938 C 149.535156 406.960938 149.039062 406.960938 149.039062 407.457031 C 146.066406 409.4375 143.09375 410.925781 140.121094 412.410156 C 130.707031 417.367188 121.292969 422.324219 111.875 426.285156 C 82.144531 438.675781 53.898438 446.601562 42.503906 449.082031 C 19.214844 454.53125 17.230469 475.839844 17.230469 475.839844 L 10.292969 530.84375 L 7.320312 552.644531 L 0.878906 603.683594 C 0.382812 606.160156 0.382812 608.640625 0.382812 610.621094 C 0.382812 640.351562 24.664062 665.625 55.386719 665.625 L 458.742188 665.625 C 489.464844 665.625 513.746094 640.847656 513.746094 610.621094 C 513.746094 608.144531 513.746094 605.667969 513.25 603.683594 Z M 507.304688 552.148438 "/></g><path style=" stroke:none;fill-rule:nonzero;fill:#ffd56b;fill-opacity:1;" d="M 151.023438 269.207031 C 151.519531 273.664062 153.5 286.054688 165.394531 279.613281 C 171.835938 316.28125 196.117188 347.5 219.40625 365.832031 C 234.269531 377.230469 248.144531 381.691406 257.5625 381.691406 C 267.472656 381.691406 282.832031 376.238281 298.195312 363.355469 C 320.492188 344.523438 343.285156 314.792969 349.234375 279.613281 C 360.628906 286.054688 363.105469 273.664062 363.601562 269.207031 C 364.59375 261.773438 367.566406 254.835938 369.054688 251.863281 C 375.496094 242.445312 375.496094 237.988281 375.992188 235.015625 C 375.496094 222.128906 368.0625 218.660156 360.628906 218.660156 C 363.105469 203.796875 364.59375 188.433594 364.59375 177.039062 C 361.621094 84.375 256.074219 88.339844 256.074219 88.339844 C 187.691406 85.367188 185.710938 121.539062 185.214844 129.964844 C 152.015625 130.953125 151.023438 165.640625 149.535156 177.039062 C 149.535156 188.433594 151.023438 203.796875 153.5 218.660156 C 146.066406 218.660156 138.636719 222.128906 138.140625 235.015625 C 138.636719 237.988281 138.636719 241.953125 145.078125 251.863281 C 147.058594 254.835938 150.03125 261.773438 151.023438 269.207031 Z M 151.023438 269.207031 "/></g></svg>