<svg xmlns="http://www.w3.org/2000/svg" xmlns:xlink="http://www.w3.org/1999/xlink" width="1000" zoomAndPan="magnify" viewBox="0 0 750 749.999995" height="1000" preserveAspectRatio="xMidYMid meet" version="1.2"><defs><clipPath id="ed27101605"><path d="M 212.597656 350 L 214 350 L 214 351 L 212.597656 351 Z M 212.597656 350 "/></clipPath><clipPath id="04f5ff2dfe"><path d="M 214 348.503906 L 215 348.503906 L 215 349 L 214 349 Z M 214 348.503906 "/></clipPath><clipPath id="bb34bcea83"><path d="M 213 353 L 221 353 L 221 358.253906 L 213 358.253906 Z M 213 353 "/></clipPath><clipPath id="ef88506665"><path d="M 217 349 L 222.347656 349 L 222.347656 357 L 217 357 Z M 217 349 "/></clipPath></defs><g id="03006f8a95"><path style=" stroke:none;fill-rule:nonzero;fill:#000000;fill-opacity:1;" d="M 216.214844 353.378906 L 216.214844 355.265625 C 216.214844 355.613281 216.496094 355.894531 216.84375 355.894531 L 219.359375 355.894531 C 219.707031 355.894531 219.988281 355.613281 219.988281 355.265625 L 219.988281 353.378906 C 219.988281 353.03125 219.707031 352.75 219.359375 352.75 L 216.84375 352.75 C 216.496094 352.75 216.214844 353.03125 216.214844 353.378906 Z M 219.671875 353.378906 L 219.671875 355.265625 C 219.671875 355.441406 219.53125 355.582031 219.359375 355.582031 L 216.84375 355.582031 C 216.667969 355.582031 216.527344 355.441406 216.527344 355.265625 L 216.527344 353.378906 C 216.527344 353.207031 216.667969 353.066406 216.84375 353.066406 L 219.359375 353.066406 C 219.53125 353.066406 219.671875 353.207031 219.671875 353.378906 Z M 219.671875 353.378906 "/><path style=" stroke:none;fill-rule:nonzero;fill:#000000;fill-opacity:1;" d="M 219.25 354.71875 L 219.011719 354.71875 L 219.011719 353.929688 L 219.25 353.929688 L 219.25 353.617188 L 218.460938 353.617188 L 218.460938 353.929688 L 218.699219 353.929688 L 218.699219 354.71875 L 218.460938 354.71875 L 218.460938 355.03125 L 219.25 355.03125 Z M 219.25 354.71875 "/><path style=" stroke:none;fill-rule:nonzero;fill:#000000;fill-opacity:1;" d="M 217.34375 354.71875 L 217.757812 354.71875 L 217.824219 355.03125 L 218.148438 355.03125 L 217.859375 353.738281 C 217.84375 353.667969 217.78125 353.617188 217.707031 353.617188 L 217.390625 353.617188 C 217.316406 353.617188 217.253906 353.667969 217.238281 353.738281 L 216.949219 355.03125 L 217.273438 355.03125 L 217.339844 354.71875 Z M 217.519531 353.929688 L 217.582031 353.929688 L 217.6875 354.402344 L 217.414062 354.402344 Z M 217.519531 353.929688 "/><g clip-rule="nonzero" clip-path="url(#ed27101605)"><path style=" stroke:none;fill-rule:nonzero;fill:#000000;fill-opacity:1;" d="M 212.597656 350.472656 L 213.066406 350.472656 L 213.066406 350.785156 L 212.597656 350.785156 Z M 212.597656 350.472656 "/></g><path style=" stroke:none;fill-rule:nonzero;fill:#000000;fill-opacity:1;" d="M 216.371094 350.472656 L 216.84375 350.472656 L 216.84375 350.785156 L 216.371094 350.785156 Z M 216.371094 350.472656 "/><g clip-rule="nonzero" clip-path="url(#04f5ff2dfe)"><path style=" stroke:none;fill-rule:nonzero;fill:#000000;fill-opacity:1;" d="M 214.5625 348.503906 L 214.875 348.503906 L 214.875 348.976562 L 214.5625 348.976562 Z M 214.5625 348.503906 "/></g><path style=" stroke:none;fill-rule:nonzero;fill:#000000;fill-opacity:1;" d="M 213.105469 349.238281 L 213.328125 349.015625 L 213.664062 349.347656 L 213.441406 349.570312 Z M 213.105469 349.238281 "/><path style=" stroke:none;fill-rule:nonzero;fill:#000000;fill-opacity:1;" d="M 215.933594 351.90625 L 216.15625 351.683594 L 216.488281 352.019531 L 216.265625 352.242188 Z M 215.933594 351.90625 "/><path style=" stroke:none;fill-rule:nonzero;fill:#000000;fill-opacity:1;" d="M 215.777344 349.347656 L 216.109375 349.015625 L 216.332031 349.238281 L 216 349.570312 Z M 215.777344 349.347656 "/><path style=" stroke:none;fill-rule:nonzero;fill:#000000;fill-opacity:1;" d="M 213.105469 352.019531 L 213.441406 351.6875 L 213.664062 351.910156 L 213.328125 352.242188 Z M 213.105469 352.019531 "/><path style=" stroke:none;fill-rule:nonzero;fill:#000000;fill-opacity:1;" d="M 214.089844 351.808594 L 214.089844 352.359375 C 214.089844 352.707031 214.371094 352.988281 214.71875 352.988281 C 215.066406 352.988281 215.347656 352.707031 215.347656 352.359375 L 215.347656 351.808594 C 215.78125 351.578125 216.054688 351.125 216.054688 350.628906 C 216.054688 350.25 215.894531 349.886719 215.609375 349.632812 C 215.328125 349.378906 214.949219 349.257812 214.566406 349.300781 C 213.964844 349.367188 213.46875 349.855469 213.394531 350.457031 C 213.324219 351.019531 213.601562 351.546875 214.089844 351.808594 Z M 214.71875 352.671875 C 214.601562 352.671875 214.503906 352.609375 214.449219 352.515625 L 214.988281 352.515625 C 214.933594 352.609375 214.835938 352.671875 214.71875 352.671875 Z M 215.035156 352.199219 L 214.40625 352.199219 L 214.40625 352.042969 L 215.035156 352.042969 Z M 213.703125 350.496094 C 213.761719 350.035156 214.140625 349.664062 214.601562 349.613281 C 214.640625 349.609375 214.679688 349.605469 214.71875 349.605469 C 214.972656 349.605469 215.210938 349.699219 215.398438 349.867188 C 215.617188 350.0625 215.742188 350.339844 215.742188 350.628906 C 215.742188 351.035156 215.5 351.402344 215.128906 351.566406 C 215.070312 351.589844 215.035156 351.648438 215.035156 351.710938 L 215.035156 351.730469 L 214.40625 351.730469 L 214.40625 351.710938 C 214.40625 351.648438 214.367188 351.589844 214.308594 351.566406 C 213.890625 351.382812 213.648438 350.953125 213.703125 350.496094 Z M 213.703125 350.496094 "/><g clip-rule="nonzero" clip-path="url(#bb34bcea83)"><path style=" stroke:none;fill-rule:nonzero;fill:#000000;fill-opacity:1;" d="M 213.566406 353.363281 C 213.550781 353.523438 213.539062 353.6875 213.539062 353.851562 C 213.539062 356.28125 215.515625 358.253906 217.941406 358.253906 C 218.894531 358.253906 219.800781 357.957031 220.5625 357.390625 L 220.375 357.140625 C 219.667969 357.664062 218.828125 357.941406 217.945312 357.941406 C 215.691406 357.941406 213.855469 356.105469 213.855469 353.851562 C 213.855469 353.699219 213.863281 353.546875 213.882812 353.398438 Z M 213.566406 353.363281 "/></g><g clip-rule="nonzero" clip-path="url(#ef88506665)"><path style=" stroke:none;fill-rule:nonzero;fill:#000000;fill-opacity:1;" d="M 217.941406 349.449219 C 217.722656 349.449219 217.507812 349.464844 217.289062 349.496094 L 217.335938 349.808594 C 217.535156 349.777344 217.738281 349.761719 217.941406 349.761719 C 220.195312 349.761719 222.03125 351.597656 222.03125 353.851562 C 222.03125 354.734375 221.753906 355.578125 221.226562 356.28125 L 221.480469 356.46875 C 222.046875 355.710938 222.34375 354.804688 222.34375 353.851562 C 222.34375 351.421875 220.371094 349.449219 217.941406 349.449219 Z M 217.941406 349.449219 "/></g><path style=" stroke:none;fill-rule:nonzero;fill:#000000;fill-opacity:1;" d="M 220.726562 356.847656 L 220.9375 357.078125 C 221.015625 357.003906 221.09375 356.925781 221.167969 356.847656 L 220.9375 356.632812 C 220.871094 356.707031 220.800781 356.777344 220.726562 356.847656 Z M 220.726562 356.847656 "/><path style=" stroke:none;fill-rule:nonzero;fill:#000000;fill-opacity:1;" d="M 220.097656 351.335938 L 219.5625 351.335938 C 219.476562 351.335938 219.402344 351.40625 219.402344 351.492188 L 219.402344 351.605469 C 219.339844 351.628906 219.273438 351.652344 219.210938 351.683594 L 219.132812 351.605469 C 219.070312 351.542969 218.972656 351.542969 218.910156 351.605469 L 218.527344 351.988281 C 218.464844 352.046875 218.464844 352.148438 218.527344 352.207031 L 218.609375 352.289062 C 218.5625 352.375 218.53125 352.460938 218.507812 352.550781 L 218.8125 352.632812 C 218.832031 352.558594 218.859375 352.488281 218.894531 352.417969 C 218.949219 352.316406 218.933594 352.1875 218.863281 352.097656 L 219.023438 351.9375 C 219.113281 352.011719 219.242188 352.027344 219.34375 351.972656 C 219.414062 351.933594 219.488281 351.90625 219.574219 351.886719 C 219.660156 351.859375 219.722656 351.78125 219.722656 351.6875 L 219.722656 351.648438 L 219.945312 351.648438 L 219.945312 351.683594 C 219.945312 351.78125 220.015625 351.867188 220.101562 351.886719 C 220.179688 351.90625 220.253906 351.933594 220.324219 351.972656 C 220.425781 352.027344 220.554688 352.011719 220.644531 351.9375 L 220.804688 352.101562 C 220.730469 352.191406 220.714844 352.316406 220.769531 352.417969 C 220.800781 352.476562 220.824219 352.535156 220.84375 352.59375 C 220.878906 352.707031 220.976562 352.785156 221.09375 352.796875 L 221.09375 353.023438 C 220.976562 353.03125 220.878906 353.109375 220.839844 353.226562 C 220.824219 353.277344 220.804688 353.332031 220.769531 353.398438 C 220.714844 353.5 220.730469 353.628906 220.804688 353.71875 L 220.644531 353.878906 C 220.554688 353.804688 220.425781 353.789062 220.324219 353.84375 C 220.265625 353.875 220.207031 353.898438 220.148438 353.917969 L 220.242188 354.21875 C 220.3125 354.195312 220.378906 354.167969 220.453125 354.132812 L 220.53125 354.214844 C 220.5625 354.246094 220.601562 354.257812 220.644531 354.257812 C 220.683594 354.257812 220.722656 354.242188 220.753906 354.214844 L 221.136719 353.832031 C 221.199219 353.769531 221.199219 353.671875 221.136719 353.609375 L 221.058594 353.53125 C 221.09375 353.457031 221.117188 353.394531 221.136719 353.335938 L 221.25 353.335938 C 221.335938 353.335938 221.40625 353.265625 221.40625 353.179688 L 221.40625 352.644531 C 221.40625 352.554688 221.335938 352.484375 221.25 352.484375 L 221.136719 352.484375 C 221.117188 352.421875 221.089844 352.359375 221.058594 352.292969 L 221.136719 352.214844 C 221.199219 352.152344 221.199219 352.054688 221.136719 351.992188 L 220.757812 351.609375 C 220.695312 351.546875 220.597656 351.546875 220.535156 351.609375 L 220.453125 351.691406 C 220.394531 351.660156 220.332031 351.632812 220.261719 351.609375 L 220.261719 351.496094 C 220.261719 351.410156 220.191406 351.339844 220.105469 351.339844 Z M 220.097656 351.335938 "/><path style=" stroke:none;fill-rule:nonzero;fill:#000000;fill-opacity:1;" d="M 220.351562 353.5 C 220.519531 353.347656 220.617188 353.132812 220.617188 352.910156 C 220.617188 352.472656 220.265625 352.121094 219.832031 352.121094 C 219.605469 352.121094 219.390625 352.21875 219.242188 352.386719 L 219.476562 352.59375 C 219.566406 352.492188 219.695312 352.433594 219.832031 352.433594 C 220.089844 352.433594 220.300781 352.648438 220.300781 352.90625 C 220.300781 353.042969 220.242188 353.171875 220.140625 353.261719 L 220.347656 353.496094 Z M 220.351562 353.5 "/><path style=" stroke:none;fill-rule:nonzero;fill:#000000;fill-opacity:1;" d="M 215.269531 355.371094 C 215.183594 355.371094 215.113281 355.445312 215.113281 355.53125 L 215.113281 355.949219 C 215.113281 356.035156 215.183594 356.105469 215.269531 356.105469 L 215.332031 356.105469 C 215.34375 356.144531 215.359375 356.179688 215.375 356.214844 L 215.332031 356.257812 C 215.269531 356.320312 215.269531 356.417969 215.332031 356.480469 L 215.628906 356.777344 C 215.691406 356.835938 215.789062 356.835938 215.851562 356.777344 L 215.894531 356.730469 C 215.929688 356.75 215.964844 356.765625 216.003906 356.777344 L 216.003906 356.839844 C 216.003906 356.925781 216.074219 356.996094 216.160156 356.996094 L 216.578125 356.996094 C 216.664062 356.996094 216.734375 356.925781 216.734375 356.839844 L 216.734375 356.777344 C 216.773438 356.765625 216.808594 356.75 216.84375 356.734375 L 216.886719 356.777344 C 216.949219 356.839844 217.046875 356.839844 217.109375 356.777344 L 217.40625 356.480469 C 217.464844 356.421875 217.464844 356.320312 217.40625 356.257812 L 217.359375 356.214844 C 217.375 356.183594 217.386719 356.152344 217.398438 356.121094 L 217.101562 356.015625 C 217.089844 356.046875 217.078125 356.074219 217.0625 356.105469 C 217.019531 356.1875 217.027344 356.289062 217.074219 356.363281 L 216.992188 356.445312 C 216.917969 356.398438 216.8125 356.390625 216.730469 356.4375 C 216.691406 356.457031 216.648438 356.476562 216.601562 356.488281 C 216.511719 356.515625 216.445312 356.589844 216.425781 356.679688 L 216.3125 356.679688 C 216.292969 356.589844 216.226562 356.515625 216.132812 356.484375 C 216.089844 356.472656 216.046875 356.457031 216.003906 356.433594 C 215.921875 356.390625 215.820312 356.394531 215.742188 356.445312 L 215.660156 356.363281 C 215.710938 356.285156 215.714844 356.183594 215.671875 356.097656 C 215.652344 356.0625 215.632812 356.015625 215.621094 355.972656 C 215.59375 355.878906 215.515625 355.816406 215.425781 355.796875 L 215.425781 355.6875 C 215.511719 355.683594 215.585938 355.625 215.609375 355.539062 C 215.625 355.476562 215.648438 355.425781 215.675781 355.371094 C 215.71875 355.289062 215.710938 355.1875 215.664062 355.113281 L 215.746094 355.03125 C 215.820312 355.082031 215.921875 355.085938 216.003906 355.042969 C 216.046875 355.023438 216.078125 355.007812 216.105469 355 L 216.003906 354.699219 C 215.972656 354.710938 215.933594 354.726562 215.894531 354.746094 L 215.851562 354.699219 C 215.789062 354.636719 215.691406 354.636719 215.628906 354.699219 L 215.332031 354.996094 C 215.269531 355.058594 215.269531 355.15625 215.332031 355.21875 L 215.378906 355.261719 C 215.359375 355.296875 215.347656 355.332031 215.335938 355.371094 Z M 215.269531 355.371094 "/><path style=" stroke:none;fill-rule:nonzero;fill:#000000;fill-opacity:1;" d="M 215.929688 355.410156 C 215.859375 355.503906 215.820312 355.621094 215.820312 355.738281 C 215.820312 356.042969 216.066406 356.289062 216.371094 356.289062 C 216.488281 356.289062 216.605469 356.25 216.699219 356.179688 L 216.511719 355.929688 C 216.472656 355.960938 216.421875 355.976562 216.371094 355.976562 C 216.238281 355.976562 216.132812 355.871094 216.132812 355.738281 C 216.132812 355.6875 216.148438 355.636719 216.183594 355.597656 Z M 215.929688 355.410156 "/><path style=" stroke:none;fill-rule:evenodd;fill:#ffd56b;fill-opacity:1;" d="M 416.003906 561.5625 C 399.898438 561.5625 384.980469 554.367188 375 542.410156 C 365.003906 554.367188 350.089844 561.5625 333.984375 561.5625 C 306.507812 561.5625 283.808594 540.722656 280.863281 514.023438 C 255.203125 510.066406 235.535156 487.894531 235.535156 461.195312 C 235.535156 453.589844 237.117188 446.191406 240.183594 439.375 C 216.867188 427.476562 201.816406 403.398438 201.816406 376.613281 C 201.816406 349.121094 217.964844 324.339844 242.21875 312.851562 C 238.453125 305.40625 236.445312 297.128906 236.445312 288.6875 C 236.445312 261.882812 256.273438 239.640625 282.035156 235.816406 C 285.039062 209.1875 307.707031 188.421875 335.125 188.421875 C 350.660156 188.421875 365.003906 195.015625 375 206.242188 C 384.980469 195.015625 399.339844 188.421875 414.859375 188.421875 C 442.292969 188.421875 464.945312 209.203125 467.964844 235.828125 C 493.757812 239.667969 513.539062 261.914062 513.539062 288.6875 C 513.539062 297.113281 511.53125 305.40625 507.765625 312.851562 C 532.035156 324.339844 548.167969 349.121094 548.167969 376.613281 C 548.167969 403.398438 533.117188 427.476562 509.816406 439.375 C 512.867188 446.191406 514.449219 453.589844 514.449219 461.195312 C 514.449219 487.910156 494.753906 510.113281 469.125 514.023438 C 466.179688 540.722656 443.480469 561.5625 416.003906 561.5625 Z M 375 517.027344 C 378.503906 517.027344 381.683594 519.109375 383.058594 522.332031 C 388.746094 535.492188 401.671875 543.992188 416.003906 543.992188 C 435.785156 543.992188 451.875 527.902344 451.875 508.117188 C 451.875 507.503906 451.859375 506.886719 451.816406 506.285156 C 451.699219 503.867188 452.59375 501.507812 454.265625 499.765625 C 455.949219 498.007812 458.25 497.070312 460.699219 497.070312 L 461.109375 497.070312 C 480.789062 497.070312 496.878906 480.980469 496.878906 461.195312 C 496.878906 453.632812 494.546875 446.410156 490.136719 440.285156 C 488.511719 438.011719 488.058594 435.109375 488.90625 432.445312 C 489.769531 429.792969 491.835938 427.695312 494.488281 426.800781 C 516.074219 419.578125 530.597656 399.398438 530.597656 376.613281 C 530.597656 353.019531 514.757812 332.0625 492.070312 325.675781 C 489.199219 324.867188 486.941406 322.65625 486.0625 319.828125 C 485.171875 316.984375 485.785156 313.878906 487.691406 311.589844 C 493.023438 305.171875 495.96875 297.039062 495.96875 288.6875 C 495.96875 268.902344 479.878906 252.8125 460.097656 252.8125 L 459.554688 252.828125 C 457.121094 252.902344 454.804688 251.875 453.136719 250.132812 C 451.449219 248.402344 450.558594 246.042969 450.675781 243.625 C 450.703125 243.039062 450.71875 242.453125 450.71875 241.867188 C 450.71875 222.097656 434.628906 206.007812 414.859375 206.007812 C 401.246094 206.007812 388.980469 213.554688 382.839844 225.703125 C 381.34375 228.664062 378.3125 230.523438 374.984375 230.523438 C 371.671875 230.523438 368.640625 228.664062 367.144531 225.703125 C 361.003906 213.554688 348.738281 206.007812 335.125 206.007812 C 315.359375 206.007812 299.265625 222.097656 299.265625 241.867188 C 299.265625 242.453125 299.28125 243.039062 299.3125 243.609375 C 299.429688 246.027344 298.535156 248.386719 296.863281 250.132812 C 295.179688 251.875 292.804688 252.84375 290.429688 252.828125 L 289.785156 252.8125 C 270.105469 252.8125 254.015625 268.902344 254.015625 288.6875 C 254.015625 297.039062 256.960938 305.1875 262.292969 311.589844 C 264.199219 313.878906 264.816406 316.984375 263.921875 319.828125 C 263.042969 322.671875 260.785156 324.867188 257.914062 325.675781 C 235.230469 332.0625 219.386719 353.019531 219.386719 376.613281 C 219.386719 399.398438 233.910156 419.578125 255.496094 426.816406 C 258.148438 427.695312 260.214844 429.792969 261.078125 432.445312 C 261.929688 435.109375 261.472656 438.011719 259.847656 440.285156 C 255.4375 446.410156 253.105469 453.632812 253.105469 461.195312 C 253.105469 480.980469 269.195312 497.070312 288.964844 497.070312 L 289.289062 497.070312 C 291.691406 497.070312 294.035156 498.007812 295.707031 499.75 C 297.390625 501.496094 298.269531 503.855469 298.152344 506.273438 C 298.125 506.886719 298.109375 507.503906 298.109375 508.132812 C 298.109375 527.902344 314.199219 543.992188 333.984375 543.992188 C 348.300781 543.992188 361.238281 535.492188 366.925781 522.332031 C 368.316406 519.109375 371.484375 517.027344 375 517.027344 Z M 375 517.027344 "/><path style=" stroke:none;fill-rule:evenodd;fill:#ffd56b;fill-opacity:1;" d="M 320.03125 277.035156 C 308.910156 277.035156 299.882812 274.089844 293.097656 268.257812 C 282.0625 258.734375 281.742188 245.515625 281.742188 244.035156 C 281.742188 239.183594 285.683594 235.257812 290.535156 235.257812 C 295.355469 235.257812 299.265625 239.140625 299.3125 243.949219 C 299.324219 244.386719 299.632812 250.792969 304.71875 255.070312 C 309.539062 259.101562 317.777344 260.390625 328.5625 258.777344 C 333.367188 258.074219 337.835938 261.371094 338.539062 266.179688 C 339.257812 270.984375 335.945312 275.453125 331.15625 276.15625 C 327.242188 276.742188 323.535156 277.035156 320.03125 277.035156 Z M 320.03125 277.035156 "/><path style=" stroke:none;fill-rule:evenodd;fill:#ffd56b;fill-opacity:1;" d="M 375 534.597656 C 370.148438 534.597656 366.207031 530.671875 366.207031 525.804688 L 366.207031 221.730469 C 366.207031 216.882812 370.148438 212.953125 375 212.953125 C 379.851562 212.953125 383.777344 216.882812 383.777344 221.730469 L 383.777344 525.804688 C 383.777344 530.671875 379.851562 534.597656 375 534.597656 Z M 375 534.597656 "/><path style=" stroke:none;fill-rule:evenodd;fill:#ffd56b;fill-opacity:1;" d="M 399.019531 343.949219 C 393.480469 343.949219 388.378906 342.820312 383.75 340.59375 C 370.617188 334.261719 366.894531 321.570312 366.515625 320.148438 C 365.253906 315.460938 368.039062 310.640625 372.730469 309.378906 C 377.375 308.132812 382.164062 310.875 383.457031 315.503906 C 383.585938 315.929688 385.535156 322.039062 391.558594 324.851562 C 397.257812 327.507812 405.539062 326.613281 415.546875 322.257812 C 420.003906 320.339844 425.175781 322.375 427.109375 326.832031 C 429.042969 331.273438 426.992188 336.445312 422.554688 338.378906 C 414.007812 342.085938 406.15625 343.949219 399.019531 343.949219 Z M 399.019531 343.949219 "/><path style=" stroke:none;fill-rule:evenodd;fill:#ffd56b;fill-opacity:1;" d="M 350.980469 423.503906 C 343.84375 423.503906 335.976562 421.644531 327.445312 417.9375 C 322.992188 416.015625 320.957031 410.828125 322.890625 406.375 C 324.824219 401.933594 329.996094 399.882812 334.453125 401.816406 C 344.445312 406.167969 352.742188 407.046875 358.425781 404.394531 C 364.550781 401.554688 366.457031 395.3125 366.53125 395.046875 C 367.789062 390.359375 372.597656 387.632812 377.285156 388.890625 C 381.976562 390.136719 384.746094 395.019531 383.484375 399.707031 C 383.105469 401.128906 379.382812 413.820312 366.25 420.148438 C 361.621094 422.390625 356.519531 423.503906 350.980469 423.503906 Z M 350.980469 423.503906 "/><path style=" stroke:none;fill-rule:evenodd;fill:#ffd56b;fill-opacity:1;" d="M 428.445312 419.898438 C 426.964844 419.898438 425.441406 419.519531 424.0625 418.714844 C 419.886719 416.308594 418.433594 410.992188 420.792969 406.800781 C 421 406.402344 423.945312 400.71875 421.671875 394.460938 C 419.535156 388.570312 413.027344 383.339844 402.886719 379.335938 C 398.375 377.550781 396.160156 372.449219 397.933594 367.9375 C 399.722656 363.410156 404.820312 361.195312 409.335938 362.984375 C 424.707031 369.035156 434.453125 377.742188 438.335938 388.847656 C 443.140625 402.609375 436.8125 414.230469 436.0625 415.503906 C 434.4375 418.316406 431.492188 419.898438 428.445312 419.898438 Z M 428.445312 419.898438 "/><path style=" stroke:none;fill-rule:evenodd;fill:#ffd56b;fill-opacity:1;" d="M 474.429688 330.832031 C 468.890625 330.832031 463.789062 329.71875 459.160156 327.476562 C 446.027344 321.144531 442.292969 308.457031 441.910156 307.035156 C 440.664062 302.34375 443.449219 297.523438 448.140625 296.277344 C 452.800781 295.019531 457.578125 297.757812 458.867188 302.386719 C 458.996094 302.8125 460.945312 308.925781 466.96875 311.738281 C 472.65625 314.390625 480.949219 313.496094 490.957031 309.144531 C 495.398438 307.222656 500.585938 309.261719 502.519531 313.714844 C 504.441406 318.171875 502.402344 323.34375 497.949219 325.277344 C 489.417969 328.984375 481.550781 330.832031 474.429688 330.832031 Z M 474.429688 330.832031 "/><path style=" stroke:none;fill-rule:evenodd;fill:#ffd56b;fill-opacity:1;" d="M 272.742188 448.769531 C 265.605469 448.769531 257.753906 446.90625 249.222656 443.199219 C 244.769531 441.265625 242.71875 436.09375 244.652344 431.636719 C 246.585938 427.199219 251.757812 425.148438 256.214844 427.082031 C 266.324219 431.460938 274.675781 432.339844 280.378906 429.585938 C 286.355469 426.683594 288.261719 420.472656 288.277344 420.414062 C 289.535156 415.722656 294.359375 412.953125 299.03125 414.199219 C 303.722656 415.460938 306.507812 420.28125 305.246094 424.972656 C 304.863281 426.390625 301.144531 439.082031 288.011719 445.414062 C 283.382812 447.640625 278.28125 448.769531 272.742188 448.769531 Z M 272.742188 448.769531 "/><path style=" stroke:none;fill-rule:evenodd;fill:#ffd56b;fill-opacity:1;" d="M 315.828125 480.847656 C 302.625 480.847656 294.035156 472.65625 293.054688 471.671875 C 289.625 468.230469 289.625 462.675781 293.054688 459.246094 C 296.46875 455.832031 301.976562 455.804688 305.40625 459.171875 C 305.730469 459.480469 310.507812 463.789062 317.101562 463.21875 C 323.34375 462.660156 330.085938 457.753906 336.578125 448.988281 C 339.464844 445.089844 344.972656 444.253906 348.871094 447.15625 C 352.769531 450.042969 353.589844 455.539062 350.703125 459.4375 C 340.871094 472.714844 329.9375 479.894531 318.199219 480.757812 C 317.394531 480.816406 316.601562 480.847656 315.828125 480.847656 Z M 315.828125 480.847656 "/><path style=" stroke:none;fill-rule:evenodd;fill:#ffd56b;fill-opacity:1;" d="M 450.792969 515.417969 C 439.652344 515.417969 430.628906 512.46875 423.84375 506.625 C 412.808594 497.113281 412.484375 483.894531 412.484375 482.414062 C 412.484375 477.566406 416.425781 473.636719 421.277344 473.636719 C 426.097656 473.636719 430.011719 477.519531 430.070312 482.328125 C 430.085938 482.765625 430.378906 489.171875 435.464844 493.449219 C 440.285156 497.480469 448.519531 498.753906 459.304688 497.15625 C 464.113281 496.4375 468.582031 499.75 469.300781 504.558594 C 470.003906 509.347656 466.691406 513.832031 461.898438 514.535156 C 457.988281 515.125 454.277344 515.417969 450.792969 515.417969 Z M 450.792969 515.417969 "/><path style=" stroke:none;fill-rule:evenodd;fill:#ffd56b;fill-opacity:1;" d="M 293.625 383.558594 C 292.542969 383.558594 291.457031 383.351562 290.402344 382.941406 C 285.886719 381.15625 283.660156 376.054688 285.449219 371.542969 C 291.515625 356.183594 300.21875 346.425781 311.328125 342.539062 C 325.089844 337.75 336.695312 344.078125 337.96875 344.8125 C 342.175781 347.246094 343.609375 352.609375 341.191406 356.8125 C 338.773438 360.992188 333.457031 362.441406 329.265625 360.082031 C 328.867188 359.875 323.183594 356.929688 316.941406 359.203125 C 311.035156 361.355469 305.804688 367.847656 301.800781 377.988281 C 300.441406 381.449219 297.128906 383.558594 293.625 383.558594 Z M 293.625 383.558594 "/><path style=" stroke:none;fill-rule:evenodd;fill:#ffd56b;fill-opacity:1;" d="M 400.644531 465.371094 C 399.558594 465.371094 398.476562 465.183594 397.421875 464.757812 C 392.90625 462.984375 390.679688 457.882812 392.46875 453.371094 C 398.519531 438 407.222656 428.238281 418.332031 424.371094 C 432.105469 419.5625 443.714844 425.894531 444.988281 426.625 C 449.195312 429.058594 450.628906 434.4375 448.199219 438.644531 C 445.792969 442.820312 440.476562 444.269531 436.285156 441.910156 C 435.886719 441.707031 430.203125 438.761719 423.945312 441.03125 C 418.054688 443.171875 412.808594 449.675781 408.808594 459.816406 C 407.457031 463.277344 404.148438 465.371094 400.644531 465.371094 Z M 400.644531 465.371094 "/><path style=" stroke:none;fill-rule:evenodd;fill:#ffd56b;fill-opacity:1;" d="M 276.011719 337.46875 C 273.945312 337.46875 271.894531 337.28125 269.871094 336.898438 C 255.554688 334.171875 248.667969 322.890625 247.933594 321.601562 C 245.5 317.410156 246.9375 312.03125 251.144531 309.597656 C 255.320312 307.195312 260.652344 308.601562 263.101562 312.734375 C 263.335938 313.117188 266.792969 318.507812 273.34375 319.664062 C 279.527344 320.75 287.308594 317.746094 295.839844 310.960938 C 299.632812 307.941406 305.171875 308.574219 308.191406 312.367188 C 311.210938 316.179688 310.582031 321.703125 306.769531 324.722656 C 296.101562 333.207031 285.785156 337.46875 276.011719 337.46875 Z M 276.011719 337.46875 "/><path style=" stroke:none;fill-rule:evenodd;fill:#ffd56b;fill-opacity:1;" d="M 274.808594 409.230469 C 273.34375 409.230469 260.125 408.910156 250.601562 397.859375 C 242.921875 388.949219 240.253906 376.15625 242.6875 359.816406 C 243.40625 355.027344 247.890625 351.714844 252.683594 352.417969 C 257.488281 353.136719 260.785156 357.605469 260.082031 362.410156 C 258.457031 373.300781 259.789062 381.59375 263.921875 386.386719 C 268.257812 391.425781 274.75 391.648438 274.808594 391.648438 C 279.660156 391.648438 283.601562 395.589844 283.601562 400.441406 C 283.601562 405.289062 279.660156 409.230469 274.808594 409.230469 Z M 274.808594 409.230469 "/><path style=" stroke:none;fill-rule:evenodd;fill:#ffd56b;fill-opacity:1;" d="M 335.039062 515.417969 C 333.96875 515.417969 332.882812 515.226562 331.8125 514.800781 C 327.300781 513.027344 325.089844 507.914062 326.875 503.398438 C 332.929688 488.042969 341.632812 478.28125 352.742188 474.414062 C 366.515625 469.605469 378.121094 475.9375 379.394531 476.671875 C 383.601562 479.101562 385.039062 484.480469 382.605469 488.6875 C 380.203125 492.863281 374.882812 494.300781 370.691406 491.941406 C 370.296875 491.734375 364.609375 488.789062 358.351562 491.0625 C 352.460938 493.214844 347.214844 499.707031 343.214844 509.847656 C 341.851562 513.304688 338.539062 515.417969 335.039062 515.417969 Z M 335.039062 515.417969 "/><path style=" stroke:none;fill-rule:evenodd;fill:#ffd56b;fill-opacity:1;" d="M 469.535156 415.167969 C 464.683594 415.167969 460.742188 411.226562 460.742188 406.375 C 460.742188 401.554688 464.625 397.640625 469.429688 397.582031 C 469.871094 397.566406 476.273438 397.273438 480.554688 392.175781 C 484.582031 387.367188 485.875 379.132812 484.261719 368.347656 C 483.558594 363.539062 486.871094 359.070312 491.660156 358.351562 C 496.46875 357.648438 500.9375 360.960938 501.65625 365.753906 C 504.089844 382.09375 501.421875 394.886719 493.742188 403.796875 C 484.21875 414.84375 471.015625 415.167969 469.535156 415.167969 Z M 469.535156 415.167969 "/><path style=" stroke:none;fill-rule:evenodd;fill:#ffd56b;fill-opacity:1;" d="M 401.421875 749.96875 L 348.578125 749.96875 L 348.5625 741.191406 L 348.5625 749.96875 C 334.554688 749.96875 323.09375 738.804688 321.90625 723.988281 L 315.738281 647.316406 C 283.148438 640.269531 252.460938 627.550781 224.371094 609.4375 L 165.769531 659.304688 C 160.390625 663.890625 153.691406 666.414062 146.921875 666.414062 C 139.945312 666.414062 133.425781 663.730469 128.53125 658.835938 L 91.164062 621.453125 C 81.257812 611.546875 81.050781 595.546875 90.679688 584.21875 L 140.5625 525.628906 C 122.449219 497.507812 109.730469 466.835938 102.695312 434.261719 L 26.011719 428.09375 C 11.195312 426.90625 0.015625 415.445312 0.015625 401.421875 L 0.015625 348.578125 C 0.015625 334.554688 11.195312 323.09375 26.011719 321.90625 L 102.667969 315.738281 C 109.714844 283.148438 122.433594 252.460938 140.546875 224.355469 L 90.695312 165.78125 C 81.050781 154.453125 81.257812 138.453125 91.164062 128.53125 L 128.53125 91.164062 C 133.425781 86.269531 139.945312 83.585938 146.921875 83.585938 C 153.691406 83.585938 160.390625 86.109375 165.78125 90.679688 L 224.355469 140.546875 C 252.460938 122.433594 283.148438 109.714844 315.753906 102.667969 L 321.90625 26.011719 C 323.09375 11.195312 334.570312 0.0273438 348.578125 0.0273438 L 401.421875 0.0273438 C 415.445312 0.0273438 426.90625 11.195312 428.09375 26.011719 L 434.261719 102.667969 C 466.851562 109.730469 497.523438 122.449219 525.644531 140.5625 L 584.21875 90.695312 C 589.609375 86.109375 596.308594 83.585938 603.078125 83.585938 C 610.039062 83.585938 616.574219 86.269531 621.46875 91.164062 L 658.835938 128.53125 C 668.742188 138.453125 668.949219 154.453125 659.320312 165.78125 L 609.4375 224.371094 C 627.550781 252.492188 640.269531 283.164062 647.304688 315.738281 L 723.988281 321.90625 C 738.804688 323.09375 749.984375 334.554688 749.984375 348.578125 L 749.984375 401.421875 C 749.984375 415.429688 738.804688 426.90625 723.988281 428.09375 L 647.332031 434.261719 C 640.269531 466.851562 627.550781 497.539062 609.4375 525.628906 L 659.320312 584.21875 C 668.949219 595.546875 668.742188 611.546875 658.835938 621.453125 L 621.46875 658.835938 C 616.574219 663.730469 610.050781 666.414062 603.078125 666.414062 C 596.308594 666.414062 589.609375 663.890625 584.21875 659.320312 L 525.628906 609.421875 C 497.507812 627.550781 466.835938 640.253906 434.261719 647.304688 L 428.09375 723.972656 C 426.90625 738.804688 415.429688 749.96875 401.421875 749.96875 Z M 223.695312 589.667969 C 225.425781 589.667969 227.140625 590.167969 228.632812 591.191406 C 258.105469 611.195312 290.738281 624.722656 325.628906 631.402344 C 329.5 632.152344 332.414062 635.390625 332.738281 639.332031 L 339.417969 722.566406 C 339.816406 727.460938 343.082031 732.398438 348.5625 732.398438 L 401.421875 732.398438 C 406.902344 732.398438 410.183594 727.460938 410.566406 722.566406 L 417.261719 639.316406 C 417.570312 635.375 420.488281 632.121094 424.371094 631.390625 C 459.230469 624.707031 491.851562 611.179688 521.351562 591.179688 C 524.617188 588.964844 528.972656 589.199219 531.988281 591.765625 L 595.605469 645.925781 C 597.816406 647.800781 600.46875 648.84375 603.078125 648.84375 C 604.675781 648.84375 607.019531 648.417969 609.027344 646.410156 L 646.394531 609.027344 C 650.277344 605.15625 649.089844 599.339844 645.925781 595.617188 L 591.765625 531.988281 C 589.199219 528.984375 588.964844 524.632812 591.179688 521.367188 C 611.179688 491.882812 624.722656 459.246094 631.402344 424.371094 C 632.136719 420.488281 635.390625 417.585938 639.332031 417.261719 L 722.566406 410.566406 C 727.445312 410.183594 732.398438 406.917969 732.398438 401.421875 L 732.398438 348.578125 C 732.398438 343.082031 727.445312 339.816406 722.566406 339.417969 L 639.300781 332.738281 C 635.375 332.414062 632.121094 329.511719 631.375 325.628906 C 624.707031 290.769531 611.179688 258.132812 591.179688 228.632812 C 588.964844 225.367188 589.199219 221.015625 591.765625 218.011719 L 645.925781 154.382812 C 649.105469 150.660156 650.277344 144.839844 646.410156 140.972656 L 609.027344 103.589844 C 607.019531 101.582031 604.675781 101.15625 603.078125 101.15625 C 600.46875 101.15625 597.816406 102.199219 595.617188 104.074219 L 531.988281 158.222656 C 528.984375 160.785156 524.632812 161.019531 521.367188 158.808594 C 491.882812 138.804688 459.246094 125.277344 424.371094 118.597656 C 420.488281 117.847656 417.570312 114.609375 417.261719 110.667969 L 410.566406 27.417969 C 410.183594 22.539062 406.917969 17.597656 401.421875 17.597656 L 348.5625 17.597656 C 343.082031 17.597656 339.816406 22.539062 339.417969 27.417969 L 332.738281 110.667969 C 332.414062 114.59375 329.511719 117.847656 325.628906 118.597656 C 290.738281 125.265625 258.105469 138.789062 228.621094 158.808594 C 225.351562 161.019531 221 160.785156 217.996094 158.222656 L 154.382812 104.074219 C 152.167969 102.199219 149.515625 101.15625 146.921875 101.15625 C 145.3125 101.15625 142.980469 101.582031 140.957031 103.589844 L 103.589844 140.972656 C 99.707031 144.839844 100.894531 150.660156 104.074219 154.382812 L 158.222656 217.996094 C 160.785156 221 161.019531 225.351562 158.808594 228.632812 C 138.789062 258.117188 125.265625 290.753906 118.597656 325.628906 C 117.847656 329.511719 114.609375 332.414062 110.667969 332.738281 L 27.417969 339.417969 C 22.539062 339.816406 17.601562 343.082031 17.601562 348.578125 L 17.601562 401.421875 C 17.601562 406.917969 22.539062 410.183594 27.417969 410.582031 L 110.683594 417.261719 C 114.625 417.585938 117.863281 420.488281 118.609375 424.371094 C 125.292969 459.246094 138.820312 491.867188 158.820312 521.367188 C 161.035156 524.632812 160.800781 528.984375 158.234375 531.988281 L 104.074219 595.617188 C 100.894531 599.339844 99.707031 605.15625 103.589844 609.027344 L 140.957031 646.410156 C 142.980469 648.417969 145.3125 648.84375 146.921875 648.84375 C 149.515625 648.84375 152.167969 647.800781 154.382812 645.925781 L 218.011719 591.765625 C 219.636719 590.371094 221.660156 589.667969 223.695312 589.667969 Z M 223.695312 589.667969 "/><path style=" stroke:none;fill-rule:evenodd;fill:#ffd56b;fill-opacity:1;" d="M 375 608.398438 C 246.308594 608.398438 141.601562 503.691406 141.601562 375 C 141.601562 246.308594 246.308594 141.601562 375 141.601562 C 503.691406 141.601562 608.398438 246.308594 608.398438 375 C 608.398438 503.691406 503.691406 608.398438 375 608.398438 Z M 375 159.171875 C 255.992188 159.171875 159.1875 255.992188 159.1875 375 C 159.1875 493.992188 255.992188 590.8125 375 590.8125 C 494.007812 590.8125 590.8125 493.992188 590.8125 375 C 590.8125 255.992188 494.007812 159.171875 375 159.171875 Z M 375 159.171875 "/><path style=" stroke:none;fill-rule:evenodd;fill:#ffd56b;fill-opacity:1;" d="M 242.378906 108.527344 C 239.332031 108.527344 236.386719 106.945312 234.757812 104.132812 C 232.328125 99.925781 233.761719 94.546875 237.96875 92.117188 L 284.113281 65.488281 C 288.320312 63.058594 293.699219 64.492188 296.117188 68.699219 C 298.550781 72.90625 297.097656 78.28125 292.90625 80.699219 L 246.761719 107.339844 C 245.371094 108.148438 243.859375 108.527344 242.378906 108.527344 Z M 242.378906 108.527344 "/><path style=" stroke:none;fill-rule:evenodd;fill:#ffd56b;fill-opacity:1;" d="M 527.316406 109.160156 C 526.566406 109.160156 525.804688 109.054688 525.042969 108.851562 L 473.578125 95.0625 C 468.890625 93.816406 466.105469 88.996094 467.363281 84.289062 C 468.625 79.617188 473.445312 76.816406 478.121094 78.078125 L 529.585938 91.882812 C 534.277344 93.128906 537.058594 97.949219 535.800781 102.636719 C 534.746094 106.566406 531.199219 109.160156 527.316406 109.160156 Z M 527.316406 109.160156 "/><path style=" stroke:none;fill-rule:evenodd;fill:#ffd56b;fill-opacity:1;" d="M 676.90625 297.304688 C 673.871094 297.304688 670.910156 295.722656 669.285156 292.90625 L 642.644531 246.761719 C 640.226562 242.554688 641.660156 237.175781 645.867188 234.757812 C 650.074219 232.328125 655.453125 233.777344 657.871094 237.96875 L 684.511719 284.113281 C 686.929688 288.320312 685.492188 293.699219 681.285156 296.117188 C 679.910156 296.921875 678.398438 297.304688 676.90625 297.304688 Z M 676.90625 297.304688 "/><path style=" stroke:none;fill-rule:evenodd;fill:#ffd56b;fill-opacity:1;" d="M 649.632812 536.109375 C 648.886719 536.109375 648.125 536.003906 647.363281 535.816406 C 642.671875 534.554688 639.886719 529.734375 641.148438 525.042969 L 654.921875 473.578125 C 656.183594 468.890625 661.003906 466.121094 665.695312 467.363281 C 670.382812 468.625 673.167969 473.445312 671.90625 478.136719 L 658.117188 529.601562 C 657.0625 533.515625 653.515625 536.109375 649.632812 536.109375 Z M 649.632812 536.109375 "/><path style=" stroke:none;fill-rule:evenodd;fill:#ffd56b;fill-opacity:1;" d="M 461.488281 685.699219 C 458.457031 685.699219 455.496094 684.113281 453.867188 681.300781 C 451.449219 677.09375 452.886719 671.71875 457.09375 669.285156 L 503.238281 642.65625 C 507.445312 640.226562 512.808594 641.660156 515.242188 645.867188 C 517.660156 650.074219 516.222656 655.453125 512.015625 657.871094 L 465.886719 684.511719 C 464.492188 685.316406 462.984375 685.699219 461.488281 685.699219 Z M 461.488281 685.699219 "/><path style=" stroke:none;fill-rule:evenodd;fill:#ffd56b;fill-opacity:1;" d="M 274.148438 672.214844 C 273.386719 672.214844 272.625 672.113281 271.863281 671.90625 L 220.398438 658.117188 C 215.710938 656.871094 212.925781 652.050781 214.183594 647.363281 C 215.445312 642.671875 220.265625 639.886719 224.957031 641.148438 L 276.40625 654.9375 C 281.097656 656.183594 283.878906 661.003906 282.636719 665.695312 C 281.578125 669.621094 278.019531 672.214844 274.148438 672.214844 Z M 274.148438 672.214844 "/><path style=" stroke:none;fill-rule:evenodd;fill:#ffd56b;fill-opacity:1;" d="M 99.734375 516.414062 C 96.703125 516.414062 93.757812 514.84375 92.117188 512.015625 L 65.476562 465.886719 C 63.058594 461.679688 64.492188 456.300781 68.699219 453.882812 C 72.90625 451.449219 78.28125 452.886719 80.699219 457.09375 L 107.339844 503.238281 C 109.773438 507.445312 108.324219 512.808594 104.132812 515.242188 C 102.742188 516.03125 101.230469 516.414062 99.734375 516.414062 Z M 99.734375 516.414062 "/><path style=" stroke:none;fill-rule:evenodd;fill:#ffd56b;fill-opacity:1;" d="M 86.578125 282.929688 C 85.828125 282.929688 85.054688 282.839844 84.289062 282.636719 C 79.617188 281.375 76.832031 276.554688 78.078125 271.863281 L 91.867188 220.398438 C 93.128906 215.722656 97.949219 212.941406 102.636719 214.183594 C 107.328125 215.445312 110.113281 220.265625 108.851562 224.957031 L 95.0625 276.421875 C 94.007812 280.347656 90.460938 282.929688 86.578125 282.929688 Z M 86.578125 282.929688 "/></g></svg>